<svg width="110" height="106" viewBox="0 0 110 106" fill="none" xmlns="http://www.w3.org/2000/svg">
<path d="M109.171 95.3689C109.468 95.3689 109.709 95.6098 109.709 95.907C109.709 96.2297 109.427 96.4798 109.107 96.4412L107.048 96.1922C106.879 96.1719 106.732 96.1562 106.61 96.1443C106.547 96.1384 106.485 96.1853 106.485 96.2693V99.2849C106.485 99.3674 106.549 99.4251 106.622 99.4216C106.745 99.4157 106.893 99.4079 107.065 99.3982L109.008 99.2888C109.307 99.272 109.56 99.5105 109.56 99.8103C109.56 100.11 109.307 100.348 109.008 100.331L107.065 100.222C106.893 100.213 106.745 100.205 106.622 100.199C106.549 100.196 106.485 100.252 106.485 100.335V103.726C106.485 103.811 106.549 103.859 106.611 103.853C106.738 103.841 106.888 103.825 107.062 103.803H107.063L109.148 103.553C109.468 103.515 109.75 103.766 109.75 104.089C109.75 104.386 109.509 104.626 109.212 104.627H105.71C105.351 104.627 105.06 104.335 105.06 103.976V96.0193C105.06 95.6603 105.351 95.3689 105.71 95.3689H109.171Z" fill="white" stroke="white" stroke-width="0.5"/>
<path d="M98.4044 95.3689C99.391 95.3689 100.192 95.5607 100.776 95.9754C101.381 96.3905 101.688 96.9863 101.688 97.7332C101.688 98.31 101.499 98.8044 101.113 99.197L101.112 99.1961C100.885 99.4337 100.6 99.6181 100.262 99.7537C100.603 99.9041 100.903 100.116 101.158 100.39C101.568 100.829 101.87 101.368 102.07 101.999L102.071 102C102.241 102.54 102.402 102.951 102.554 103.24C102.715 103.52 102.877 103.701 103.033 103.805C103.205 103.914 103.409 103.997 103.65 104.051C103.781 104.08 103.878 104.196 103.878 104.335C103.878 104.496 103.748 104.627 103.587 104.627H103.07C102.645 104.627 102.272 104.556 101.964 104.399L101.961 104.397C101.655 104.236 101.406 103.972 101.207 103.625C101.012 103.284 100.833 102.825 100.667 102.258C100.411 101.422 100.082 100.867 99.7013 100.553C99.3156 100.236 98.8422 100.073 98.2677 100.073C98.0847 100.073 97.9366 99.924 97.9366 99.741V99.6795C97.9366 99.4965 98.0847 99.3477 98.2677 99.3474L98.5206 99.3406C99.0859 99.3086 99.4853 99.1661 99.7491 98.9431C100.043 98.6951 100.208 98.3124 100.208 97.7459C100.208 97.1836 100.051 96.805 99.7784 96.5623C99.4999 96.3148 99.057 96.1688 98.4044 96.1687H97.9063C97.8235 96.1687 97.756 96.2363 97.7559 96.3191V103.976C97.7559 104.335 97.4654 104.627 97.1065 104.627H96.9815C96.6225 104.627 96.3311 104.335 96.3311 103.976V96.0193C96.3311 95.6603 96.6225 95.3689 96.9815 95.3689H98.4044Z" fill="white" stroke="white" stroke-width="0.5"/>
<path d="M86.2777 95.3689C86.5282 95.3689 86.7567 95.513 86.8646 95.739L90.2679 102.87L93.1087 95.7771C93.2075 95.5305 93.4466 95.3689 93.7123 95.3689H93.8236C94.3032 95.3689 94.6176 95.8708 94.4085 96.3025L90.4261 104.526C90.3445 104.695 90.173 104.802 89.9857 104.802C89.7985 104.801 89.6279 104.695 89.5462 104.526L85.5628 96.3025C85.3539 95.871 85.6685 95.3692 86.1478 95.3689H86.2777Z" fill="white" stroke="white" stroke-width="0.5"/>
<path d="M76.3779 95.3689C76.7368 95.3691 77.0273 95.6604 77.0273 96.0193V100.898C77.0273 101.861 77.2811 102.58 77.7588 103.089C78.2445 103.587 78.936 103.851 79.8662 103.851C80.4537 103.851 80.9503 103.748 81.3633 103.551C81.7878 103.344 82.1033 103.065 82.3203 102.718L82.3223 102.715C82.5458 102.37 82.6522 101.97 82.6357 101.508L82.4209 96.0447C82.4064 95.676 82.7023 95.3689 83.0713 95.3689H83.1641L83.2978 95.3826C83.6015 95.4462 83.8262 95.7219 83.8135 96.0447L83.5986 101.509C83.5604 102.561 83.213 103.392 82.5303 103.966C81.8616 104.535 80.9252 104.802 79.7568 104.802C78.488 104.801 77.4628 104.464 76.7148 103.758L76.7139 103.757C75.9656 103.041 75.6026 102.07 75.6025 100.874V96.0193C75.6025 95.6603 75.8939 95.3689 76.2529 95.3689H76.3779Z" fill="white" stroke="white" stroke-width="0.5"/>
<path d="M68.1846 95.1961C68.9112 95.1961 69.5908 95.3175 70.2207 95.5632C70.8562 95.7992 71.4095 96.1365 71.8789 96.5769H71.8779C72.3559 97.0084 72.7248 97.5197 72.9834 98.1091C73.2525 98.6936 73.3867 99.3247 73.3867 99.9998C73.3867 100.675 73.252 101.31 72.9834 101.902L72.9844 101.903C72.7253 102.486 72.355 102.998 71.877 103.437C71.4077 103.869 70.8543 104.206 70.2197 104.45H70.2178C69.5886 104.687 68.9102 104.803 68.1846 104.803C67.459 104.803 66.7762 104.687 66.1387 104.451L66.1348 104.449C65.5095 104.205 64.9566 103.868 64.4795 103.438L64.4766 103.435C64.0088 102.996 63.6406 102.486 63.3731 101.906L63.3711 101.902C63.1116 101.31 62.9824 100.675 62.9824 99.9998C62.9825 99.325 63.1111 98.6936 63.3711 98.1091L63.3721 98.1072C63.6396 97.5185 64.0091 97.0076 64.4785 96.5759C64.8966 96.1915 65.3726 95.8848 65.9053 95.656L66.1377 95.5623C66.7755 95.3175 67.4585 95.1961 68.1846 95.1961ZM68.1846 95.9959C67.4443 95.9959 66.8052 96.166 66.2598 96.4978C65.7218 96.8225 65.2933 97.2828 64.9775 97.8865L64.9785 97.8875C64.6735 98.4797 64.5166 99.1813 64.5166 99.9998C64.5166 100.818 64.6732 101.524 64.9785 102.125L65.0986 102.342C65.3925 102.832 65.7785 103.221 66.2578 103.513L66.4668 103.628C66.965 103.877 67.5359 104.004 68.1846 104.004C68.9248 104.004 69.5632 103.838 70.1084 103.514C70.6563 103.181 71.0832 102.717 71.3897 102.114C71.6955 101.512 71.8525 100.809 71.8525 99.9998C71.8525 99.1901 71.6958 98.4927 71.3906 97.9002L71.3897 97.8992C71.0832 97.2965 70.6564 96.8312 70.1084 96.4978C69.563 96.1661 68.9247 95.9959 68.1846 95.9959Z" fill="white" stroke="white" stroke-width="0.5"/>
<path d="M58.5781 95.3689C58.937 95.3691 59.2275 95.6604 59.2275 96.0193V103.726C59.2276 103.812 59.2918 103.858 59.3516 103.852C59.4692 103.84 59.6053 103.824 59.7598 103.803L61.6807 103.538C62.0094 103.492 62.3027 103.748 62.3027 104.08C62.3025 104.382 62.0576 104.626 61.7559 104.627H58.4531C58.0941 104.627 57.8027 104.335 57.8027 103.976V96.0193C57.8027 95.6603 58.0941 95.3689 58.4531 95.3689H58.5781Z" fill="white" stroke="white" stroke-width="0.5"/>
<path d="M51.8769 95.3689C52.1809 95.3689 52.4277 95.6157 52.4277 95.9197C52.4275 96.2489 52.1395 96.5039 51.8125 96.4656L49.4814 96.1922C49.311 96.1721 49.1643 96.1561 49.042 96.1443C48.9791 96.1385 48.9179 96.1859 48.9179 96.2693V103.976C48.9179 104.335 48.6265 104.627 48.2676 104.627H48.1426C47.7836 104.627 47.4922 104.335 47.4922 103.976V96.2693C47.4922 96.1857 47.4302 96.1382 47.3672 96.1443C47.2448 96.1561 47.0982 96.1721 46.9277 96.1922L44.5967 96.4656C44.2697 96.5038 43.9826 96.2488 43.9824 95.9197C43.9824 95.6157 44.2292 95.3689 44.5332 95.3689H51.8769Z" fill="white" stroke="white" stroke-width="0.5"/>
<path d="M41.626 95.3689C41.9848 95.3691 42.2754 95.6604 42.2754 96.0193V103.976C42.2754 104.335 41.9848 104.627 41.626 104.627H41.501C41.142 104.627 40.8506 104.335 40.8506 103.976V96.0193C40.8506 95.6603 41.142 95.3689 41.501 95.3689H41.626Z" fill="white" stroke="white" stroke-width="0.5"/>
<path d="M38.5908 95.3689C38.8948 95.3689 39.1416 95.6157 39.1416 95.9197C39.1414 96.2489 38.8534 96.5039 38.5264 96.4656L36.1953 96.1922C36.0249 96.1721 35.8782 96.1561 35.7559 96.1443C35.693 96.1385 35.6319 96.1859 35.6319 96.2693V103.976C35.6319 104.335 35.3404 104.627 34.9815 104.627H34.8565C34.4975 104.627 34.2061 104.335 34.2061 103.976V96.2693C34.2061 96.1857 34.1441 96.1382 34.0811 96.1443C33.9587 96.1561 33.8121 96.1721 33.6416 96.1922L31.3106 96.4656C30.9837 96.5038 30.6965 96.2488 30.6963 95.9197C30.6963 95.6157 30.9431 95.3689 31.2471 95.3689H38.5908Z" fill="white" stroke="white" stroke-width="0.5"/>
<path d="M29.0996 95.3689C29.3968 95.3689 29.6377 95.6098 29.6377 95.907C29.6377 96.2297 29.3555 96.4798 29.0352 96.4412L26.9766 96.1922C26.8071 96.1719 26.6608 96.1562 26.5381 96.1443C26.4757 96.1384 26.4131 96.1853 26.4131 96.2693V99.2849C26.4131 99.3675 26.4773 99.4251 26.5508 99.4216C26.6732 99.4157 26.821 99.4079 26.9932 99.3982L28.9365 99.2888C29.2359 99.272 29.4883 99.5105 29.4883 99.8103C29.4881 100.11 29.2358 100.348 28.9365 100.331L26.9932 100.222C26.821 100.213 26.6732 100.205 26.5508 100.199C26.4774 100.196 26.4133 100.252 26.4131 100.335V103.726C26.4131 103.811 26.477 103.859 26.5391 103.853C26.6662 103.841 26.8166 103.825 26.9902 103.803L29.0762 103.553C29.3965 103.515 29.6787 103.766 29.6787 104.089C29.6785 104.386 29.4376 104.626 29.1406 104.627H25.6387C25.2797 104.627 24.9883 104.335 24.9883 103.976V96.0193C24.9883 95.6603 25.2797 95.3689 25.6387 95.3689H29.0996Z" fill="white" stroke="white" stroke-width="0.5"/>
<path d="M19.1787 95.3689C20.3033 95.3689 21.2134 95.5905 21.8789 96.0642C22.556 96.5382 22.8984 97.2129 22.8984 98.0584C22.8984 98.9038 22.5573 99.5811 21.8818 100.063L21.8799 100.065C21.2145 100.531 20.3039 100.748 19.1787 100.748H18.8037C18.7209 100.748 18.6533 100.815 18.6533 100.898V103.976C18.6533 104.335 18.3627 104.627 18.0039 104.627H17.8789C17.5199 104.627 17.2285 104.335 17.2285 103.976V96.0193C17.2285 95.6603 17.5199 95.3689 17.8789 95.3689H19.1787ZM18.8037 96.1687C18.7209 96.1687 18.6533 96.2363 18.6533 96.3191V99.7976C18.6533 99.8805 18.7209 99.948 18.8037 99.948H19.1787C19.9785 99.948 20.5325 99.7752 20.8838 99.4734C21.2276 99.1778 21.4189 98.722 21.4189 98.0584C21.4189 97.3947 21.2277 96.9389 20.8838 96.6433C20.5325 96.3415 19.9785 96.1687 19.1787 96.1687H18.8037Z" fill="white" stroke="white" stroke-width="0.5"/>
<path d="M10.6328 95.3689C10.93 95.3689 11.1709 95.6098 11.1709 95.907C11.1709 96.2297 10.8887 96.4798 10.5684 96.4412L8.50976 96.1922C8.34028 96.1719 8.19396 96.1562 8.07128 96.1443C8.00886 96.1384 7.94628 96.1853 7.94628 96.2693V99.2849C7.94628 99.3674 8.01047 99.4251 8.08398 99.4216C8.20644 99.4157 8.35422 99.4079 8.52636 99.3982L10.4697 99.2888C10.7691 99.272 11.0215 99.5105 11.0215 99.8103C11.0213 100.11 10.769 100.348 10.4697 100.331L8.52636 100.222C8.35422 100.213 8.20644 100.205 8.08398 100.199C8.01058 100.196 7.94649 100.252 7.94628 100.335V103.726C7.94631 103.811 8.01018 103.859 8.07226 103.853C8.19938 103.841 8.34977 103.825 8.52343 103.803L10.6094 103.553C10.9297 103.515 11.2119 103.766 11.2119 104.089C11.2117 104.386 10.9708 104.626 10.6739 104.627H7.17187C6.81288 104.627 6.52148 104.335 6.52148 103.976V96.0193C6.52148 95.6603 6.81288 95.3689 7.17187 95.3689H10.6328Z" fill="white" stroke="white" stroke-width="0.5"/>
<path d="M1.02539 95.3689C1.38425 95.3691 1.6748 95.6604 1.6748 96.0193V103.726C1.67484 103.812 1.73906 103.858 1.79883 103.852C1.91647 103.84 2.0526 103.824 2.20703 103.803L4.12793 103.538C4.45665 103.492 4.75 103.748 4.75 104.08C4.74978 104.382 4.50491 104.626 4.20312 104.627H0.900391C0.541405 104.627 0.25 104.335 0.25 103.976V96.0193C0.25 95.6603 0.541406 95.3689 0.900391 95.3689H1.02539Z" fill="white" stroke="white" stroke-width="0.5"/>
<path d="M52.9082 18.5805C65.4146 18.5805 71.2051 24.4021 71.2051 32.7084C71.205 40.53 65.8652 46.7765 56.7979 47.4789V71.1313C56.7979 71.3521 56.6192 71.5315 56.3984 71.5317H50.0752C49.8543 71.5317 49.6748 71.3522 49.6748 71.1313V47.5463H45.2793C45.0586 47.5465 44.88 47.725 44.8799 47.9457V62.4096C44.8799 62.6305 44.7004 62.81 44.4795 62.81H38.4863C38.2654 62.81 38.0859 62.6305 38.0859 62.4096V41.6274C38.0861 41.4065 38.2655 41.228 38.4863 41.228H49.6748V33.7202C49.6748 33.4992 49.8543 33.3198 50.0752 33.3198H56.3984C56.6192 33.32 56.7979 33.4994 56.7979 33.7202V41.1332C61.0472 40.6432 64.334 38.1771 64.334 33.1342C64.334 27.3127 59.7016 24.8989 54.6836 24.8989H38.4863C38.2656 24.8989 38.0862 24.7201 38.0859 24.4995V18.9809C38.0859 18.76 38.2654 18.5805 38.4863 18.5805H52.9082ZM73.6133 64.9789C73.834 64.9789 74.0134 65.1577 74.0137 65.3784V71.1293C74.0137 71.3502 73.8342 71.5297 73.6133 71.5297H61.9482C61.7273 71.5297 61.5479 71.3502 61.5479 71.1293V65.3784C61.5481 65.1577 61.7275 64.9789 61.9482 64.9789H73.6133Z" fill="white"/>
</svg>
